<?xml version="1.0" encoding="UTF-8" standalone="no"?>
<svg
   xmlns:dc="http://purl.org/dc/elements/1.1/"
   xmlns:cc="http://creativecommons.org/ns#"
   xmlns:rdf="http://www.w3.org/1999/02/22-rdf-syntax-ns#"
   xmlns:svg="http://www.w3.org/2000/svg"
   xmlns="http://www.w3.org/2000/svg"
   xmlns:sodipodi="http://sodipodi.sourceforge.net/DTD/sodipodi-0.dtd"
   xmlns:inkscape="http://www.inkscape.org/namespaces/inkscape"
   id="Capa_1"
   enable-background="new 0 0 513 513"
   height="512"
   viewBox="0 0 513 513"
   width="512"
   version="1.1"
   sodipodi:docname="computer-win.svg"
   inkscape:version="0.92.5 (2060ec1f9f, 2020-04-08)">
  <metadata
     id="metadata1578">
    <rdf:RDF>
      <cc:Work
         rdf:about="">
        <dc:format>image/svg+xml</dc:format>
        <dc:type
           rdf:resource="http://purl.org/dc/dcmitype/StillImage" />
        <dc:title></dc:title>
      </cc:Work>
    </rdf:RDF>
  </metadata>
  <defs
     id="defs1576" />
  <sodipodi:namedview
     pagecolor="#ffffff"
     bordercolor="#666666"
     borderopacity="1"
     objecttolerance="10"
     gridtolerance="10"
     guidetolerance="10"
     inkscape:pageopacity="0"
     inkscape:pageshadow="2"
     inkscape:window-width="2560"
     inkscape:window-height="1387"
     id="namedview1574"
     showgrid="false"
     inkscape:zoom="0.59570313"
     inkscape:cx="-433.82078"
     inkscape:cy="263.08701"
     inkscape:window-x="-8"
     inkscape:window-y="22"
     inkscape:window-maximized="1"
     inkscape:current-layer="layer1" />
  <g
     id="g1639">
    <path
       style="fill:#a79ba7"
       inkscape:connector-curvature="0"
       id="path1514"
       d="M 315.44,326.194 H 197.49 v 103.54 l 7.03,20.865 h 101.832 l 9.158,-20.865 z" />
    <g
       id="XMLID_248_">
      <g
         id="g1524">
        <path
           d="m 255.924,395.244 h 59.563 l -0.047,-69.05 H 235.883 197.49 v 69.05 34.49 l 7.03,20.865 h 38.393 l -7.03,-20.865 v -14.449 c 0,-11.068 8.972,-20.041 20.041,-20.041 z"
           id="path1516"
           inkscape:connector-curvature="0"
           style="fill:#918291" />
        <path
           d="M 482.16,41.544 H 30.84 c -12.89,0 -23.34,10.45 -23.34,23.33 v 269.655 c -0.1,0.177 -0.107,0.275 0,0.275 2.03,0 47.858,22.72 47.858,22.72 H 487.42 l 18.08,-22.72 V 64.874 c 0,-12.88 -10.45,-23.33 -23.34,-23.33 z"
           id="path1518"
           inkscape:connector-curvature="0"
           style="fill:#c8effe" />
        <path
           d="M 77.543,334.594 V 42.564 c 0,-0.342 0.011,-0.681 0.026,-1.02 H 30.84 c -12.89,0 -23.34,10.45 -23.34,23.33 v 269.655 c -0.1,0.177 -0.107,0.275 0,0.275 2.03,0 47.858,22.72 47.858,22.72 H 96.539 C 85.725,355.487 77.543,345.998 77.543,334.594 Z"
           id="path1520"
           inkscape:connector-curvature="0"
           style="fill:#99e6fc" />
        <path
           d="m 505.5,334.804 v 22.1 c 0,12.89 -10.45,23.34 -23.34,23.34 H 30.84 c -12.89,0 -23.34,-10.45 -23.34,-23.34 v -22.1 h 2.03 z"
           id="path1522"
           inkscape:connector-curvature="0"
           style="fill:#b5adb6" />
      </g>
    </g>
    <path
       d="m 100.883,357.934 c -12.82,0 -23.221,-10.337 -23.335,-23.13 H 9.53 7.5 v 22.1 c 0,12.89 10.45,23.34 23.34,23.34 h 451.32 c 12.545,0 22.774,-9.898 23.314,-22.31 z"
       id="path1527"
       inkscape:connector-curvature="0"
       style="fill:#a79ba7" />
    <g
       id="XMLID_250_">
      <g
         id="g1531">
        <path
           d="m 361.22,461.504 c 4.4,3.06 2.24,9.96 -3.11,9.96 H 154.89 c -5.35,0 -7.51,-6.9 -3.11,-9.96 l 45.71,-31.77 h 84.44 33.58 z"
           id="path1529"
           inkscape:connector-curvature="0"
           style="fill:#b5adb6" />
      </g>
    </g>
    <path
       d="m 190.275,461.504 45.71,-31.77 H 197.49 l -45.71,31.77 c -4.4,3.06 -2.24,9.96 3.11,9.96 h 38.495 c -5.35,0 -7.51,-6.9 -3.11,-9.96 z"
       id="path1534"
       inkscape:connector-curvature="0"
       style="fill:#a79ba7" />
  </g>
  <g
     inkscape:groupmode="layer"
     id="layer1"
     inkscape:label="Layer 1">
    <g
       transform="matrix(0.53505122,0,0,0.53505122,119.25936,52.669337)"
       style="fill-rule:evenodd"
       id="g1723">
      <path
         style="fill:#f8f8f8"
         inkscape:connector-curvature="0"
         d="M 114.10938,114.30078 C 132.75391,98.453125 154.07422,85.660156 177.29687,76.691406 155.06641,53.105469 117.33984,21.460938 96.476562,10 95.964844,34.046875 104.6875,83.300781 114.10938,114.30078 Z m 0,0"
         id="path1713" />
      <path
         style="fill:#f8f8f8"
         inkscape:connector-curvature="0"
         d="m 416.52344,10 c -20.86328,11.464844 -58.58985,43.109375 -80.82422,66.691406 23.22656,8.96875 44.54687,21.761719 63.1875,37.609374 C 408.30859,83.300781 417.03516,34.046875 416.52344,10 Z m 0,0"
         id="path1715" />
      <path
         style="fill:#ff6977"
         inkscape:connector-curvature="0"
         d="M 398.88672,114.30078 C 380.24609,98.453125 358.92578,85.660156 335.69922,76.691406 311.12891,67.203125 284.42187,62.003906 256.5,62.003906 c -27.92188,0 -54.62891,5.203125 -79.20313,14.691406 -23.22265,8.964844 -44.54296,21.757813 -63.18749,37.605468 -42.816411,36.39453 -71.511724,88.89844 -76.73438,148.14453 -16.636719,2.3711 -26.875,7.92578 -26.875,18.52344 0,24.46094 13.519531,47.09375 35.898438,66.48047 C 74.261719,436.98828 157.78906,502 256.5,502 355.21094,502 438.73828,436.98828 466.59766,347.44922 488.98047,328.0625 502.5,305.42969 502.5,280.96875 c 0,-10.59766 -10.23828,-16.15234 -26.875,-18.52344 -5.22266,-59.24609 -33.92188,-111.75 -76.73828,-148.14453 z M 110.5,320.66797 c 0,-28.16016 97.33203,-2.69922 146,-2.69922 48.66797,0 146,-25.46094 146,2.69922 C 402.5,334.125 396.98828,346.74609 387.54297,358 362.15234,388.24609 308.3125,408.58984 256.5,408.58984 204.68359,408.58984 150.84375,388.24609 125.45313,358 116.00781,346.74609 110.5,334.125 110.5,320.66797 Z m 0,0"
         id="path1717" />
      <path
         style="fill:#f8f8f8"
         inkscape:connector-curvature="0"
         d="m 402.5,320.66797 c 0,-28.16016 -97.33203,-2.69922 -146,-2.69922 -48.66797,0 -146,-25.46094 -146,2.69922 0,13.45703 5.51172,26.07812 14.95703,37.33203 H 387.54297 C 396.99219,346.74609 402.5,334.125 402.5,320.66797 Z m 0,0"
         id="path1719" />
      <path
         style="fill:#f8f8f8"
         inkscape:connector-curvature="0"
         d="M 387.54297,358 H 125.45703 c 25.39063,30.24609 79.22656,50.58984 131.04297,50.58984 51.8125,0 105.65234,-20.34375 131.04297,-50.58984 z m 0,0"
         id="path1721" />
    </g>
    <path
       style="stroke-width:0.53505123"
       inkscape:connector-curvature="0"
       d="m 378.64634,188.56189 c -3.52172,-28.96174 -17.21151,-55.66831 -38.83301,-75.5718 -0.34277,-0.31559 -0.6939,-0.62283 -1.04085,-0.93635 4.51032,-16.128863 8.97674,-40.950225 8.69668,-54.146757 -0.0397,-1.870591 -1.05338,-3.584421 -2.67317,-4.520761 -1.61979,-0.936347 -3.61159,-0.95724 -5.25228,-0.05643 -11.52659,6.332835 -30.26593,22.123117 -42.10393,34.155495 -13.01889,-4.589735 -26.83617,-6.991196 -40.93978,-6.991196 -14.07227,0 -27.89372,2.426538 -40.91051,7.022547 C 203.75565,75.48007 184.99333,59.668895 173.4542,53.329786 c -1.63859,-0.900804 -3.63041,-0.879911 -5.25019,0.05643 -1.61979,0.93634 -2.63554,2.65017 -2.67525,4.518672 -0.28007,13.196541 4.18845,38.02416 8.70085,54.155122 -3.30645,2.96995 -6.46451,6.12801 -9.45536,9.47207 -1.97091,2.20083 -1.78281,5.5846 0.4201,7.55342 2.20291,1.97092 5.58459,1.78281 7.55551,-0.42009 21.30172,-23.81396 51.82681,-37.472392 83.75014,-37.472392 57.69565,0 106.85558,44.965202 111.9114,102.366152 0.21944,2.47671 2.11303,4.47479 4.5751,4.82591 2.94279,0.4201 9.78559,1.70966 9.78559,4.61691 0,13.62708 -9.44073,24.66461 -17.362,31.52414 -0.75241,0.65208 -1.30837,1.50273 -1.60515,2.4537 -14.69092,47.21409 -57.81479,78.93468 -107.30494,78.93468 -49.49223,0 -92.61402,-31.72059 -107.30494,-78.93258 -0.29679,-0.95098 -0.85273,-1.80163 -1.60515,-2.45372 -7.92127,-6.86161 -17.36199,-17.89704 -17.36199,-31.52622 0,-2.90516 6.8428,-4.19471 9.78558,-4.61481 2.45998,-0.35113 4.35565,-2.3513 4.57302,-4.82801 0.75241,-8.52528 2.48715,-16.96906 5.15823,-25.10142 0.9217,-2.80693 -0.60612,-5.83123 -3.41304,-6.75293 -2.80902,-0.92171 -5.83123,0.60612 -6.75293,3.41513 -2.50179,7.61611 -4.25533,15.48305 -5.22512,23.44193 -12.1327,2.8362 -14.82677,9.2798 -14.82677,14.44011 0,13.59156 6.87833,26.91349 19.90976,38.60311 7.7875,23.94563 23.16814,45.40829 43.43738,60.5632 21.38742,15.99301 46.84624,24.44724 73.62597,24.44724 26.77764,0 52.23855,-8.45423 73.62597,-24.44724 20.26925,-15.15491 35.64988,-36.61757 43.43738,-60.5632 13.03143,-11.68962 19.90976,-25.01155 19.90976,-38.60311 0,-5.16031 -2.69406,-11.60391 -14.82677,-14.44011 z M 176.74811,68.173279 c 8.60263,6.159359 19.36216,15.223877 28.08182,23.72827 -7.56177,3.500819 -14.77451,7.766598 -21.51072,12.747171 -3.0034,-11.783666 -5.5198,-25.851749 -6.5711,-36.475441 z m 159.50378,0 c -1.0513,10.61533 -3.56352,24.672963 -6.56482,36.452461 -6.74457,-4.999394 -13.9406,-9.267261 -21.48147,-12.761815 8.71547,-8.491846 19.45621,-17.541737 28.04629,-23.690646 z m 0,0"
       id="path1725" />
    <path
       style="stroke-width:0.53505123"
       inkscape:connector-curvature="0"
       d="m 173.03201,224.24311 c 0,30.87622 43.98915,52.39322 83.46799,52.39322 39.47884,0 83.46799,-21.517 83.46799,-52.39322 0,-3.15806 -1.24567,-5.92527 -3.59906,-8.00068 -7.29425,-6.42898 -23.85366,-4.86772 -50.25928,-1.52992 -10.64668,1.346 -21.65285,2.73587 -29.60965,2.73587 -7.9568,0 -18.96506,-1.38987 -29.60965,-2.73587 -26.40771,-3.33571 -42.96712,-4.89906 -50.26137,1.52992 -2.35339,2.07541 -3.59697,4.84262 -3.59697,8.00068 z M 256.5,265.9353 c -17.89705,0 -36.36467,-4.68796 -50.66894,-12.86003 -1.66994,-0.95516 -3.56979,-2.12975 -5.53443,-3.5071 h 112.40674 c -1.96673,1.37735 -3.86658,2.55194 -5.53443,3.5071 -14.30427,8.17207 -32.7719,12.86003 -50.66894,12.86003 z m -59.55162,-43.40184 c 8.1888,0.21737 18.56586,1.52782 28.60016,2.79648 11.47852,1.45049 22.32167,2.81946 30.95146,2.81946 8.62979,0 19.47294,-1.36897 30.95147,-2.81946 10.03429,-1.26866 20.41136,-2.57911 28.60224,-2.79648 10.35407,-0.27379 12.79316,1.3439 13.21326,1.70965 0,5.52817 -2.13184,10.42514 -5.21885,14.62404 H 188.95187 c -3.08699,-4.1989 -5.21883,-9.09587 -5.21883,-14.62404 0.42218,-0.36784 2.85917,-1.98344 13.21534,-1.70965 z m 0,0"
       id="path1727" />
    <path
       style="stroke-width:0.53505123"
       inkscape:connector-curvature="0"
       d="m 280.85344,202.98528 c 5.90229,0 10.70103,-4.80083 10.70103,-10.70103 v -6.88251 c 9.98832,-2.92398 19.1887,-7.11451 27.15804,-12.45038 2.4558,-1.64279 3.11207,-4.96804 1.46721,-7.42175 -1.64278,-2.4558 -4.96595,-3.11208 -7.42175,-1.46931 -14.73481,9.8671 -35.24023,15.52694 -56.25771,15.52694 -21.01957,0 -41.5229,-5.65984 -56.25771,-15.52694 -2.4558,-1.64486 -5.77897,-0.98859 -7.42384,1.46931 -1.64277,2.45371 -0.98649,5.77688 1.46931,7.42175 7.96933,5.33796 17.1697,9.5264 27.15593,12.45038 v 6.88251 c 0,5.9002 4.80083,10.70103 10.70103,10.70103 5.90019,0 10.70102,-4.80083 10.70102,-10.70103 v -2.70869 c 4.48106,0.47026 9.03944,0.7127 13.65426,0.7127 4.61272,0 9.1732,-0.24244 13.65217,-0.7127 v 2.70869 c 0,5.9002 4.80083,10.70103 10.70101,10.70103 z m 0,0"
       id="path1729" />
    <path
       style="stroke-width:0.53505123"
       inkscape:connector-curvature="0"
       d="m 253.84574,149.34849 c 0.83602,0.47862 1.74936,0.70644 2.64809,0.70644 1.85804,0 3.66384,-0.96979 4.65034,-2.69825 l 0.002,-0.002 c 1.46721,-2.56658 0.57476,-5.83331 -1.99181,-7.29843 -2.56448,-1.46722 -5.83541,-0.57477 -7.30052,1.9918 -1.46721,2.56659 -0.57477,5.83332 1.99181,7.30053 z m 0,0"
       id="path1731" />
  </g>
  <path
     d="M 482.162,34.04 H 30.838 C 13.834,34.04 0,47.874 0,64.878 v 292.025 c 0,17.004 13.834,30.838 30.838,30.838 h 159.15 v 38.075 l -42.493,29.531 c -4.678,3.251 -6.677,9.088 -4.973,14.524 1.704,5.436 6.676,9.088 12.373,9.088 h 203.211 c 5.697,0 10.669,-3.652 12.373,-9.088 1.704,-5.436 -0.295,-11.273 -4.973,-14.524 l -42.493,-29.531 v -38.075 h 159.15 c 17.004,0 30.838,-13.834 30.838,-30.838 V 64.878 C 513,47.874 499.166,34.04 482.162,34.04 Z m -451.324,15 h 451.324 c 8.733,0 15.838,7.105 15.838,15.838 V 327.307 H 15 V 64.878 C 15,56.145 22.105,49.04 30.838,49.04 Z M 482.162,372.741 H 289.477 c -4.142,0 -7.5,3.358 -7.5,7.5 0,4.142 3.358,7.5 7.5,7.5 h 18.535 v 41.996 c 0,2.457 1.203,4.757 3.22,6.159 l 40.382,28.064 H 161.387 l 38.452,-26.723 h 82.091 c 4.142,0 7.5,-3.358 7.5,-7.5 0,-4.142 -3.358,-7.5 -7.5,-7.5 h -76.941 v -34.496 h 52.526 c 4.142,0 7.5,-3.358 7.5,-7.5 0,-4.142 -3.358,-7.5 -7.5,-7.5 H 30.838 C 22.105,372.741 15,365.636 15,356.903 v -14.597 h 483 v 14.597 c 0,8.733 -7.105,15.838 -15.838,15.838 z"
     id="path1559"
     inkscape:connector-curvature="0" />
</svg>
