<?xml version="1.0" encoding="UTF-8" standalone="no"?>
<svg
   xmlns:dc="http://purl.org/dc/elements/1.1/"
   xmlns:cc="http://creativecommons.org/ns#"
   xmlns:rdf="http://www.w3.org/1999/02/22-rdf-syntax-ns#"
   xmlns:svg="http://www.w3.org/2000/svg"
   xmlns="http://www.w3.org/2000/svg"
   xmlns:sodipodi="http://sodipodi.sourceforge.net/DTD/sodipodi-0.dtd"
   xmlns:inkscape="http://www.inkscape.org/namespaces/inkscape"
   id="Capa_1"
   enable-background="new 0 0 513 513"
   height="512"
   viewBox="0 0 513 513"
   width="512"
   version="1.1"
   sodipodi:docname="player-win.svg"
   inkscape:version="0.92.5 (2060ec1f9f, 2020-04-08)">
  <metadata
     id="metadata1578">
    <rdf:RDF>
      <cc:Work
         rdf:about="">
        <dc:format>image/svg+xml</dc:format>
        <dc:type
           rdf:resource="http://purl.org/dc/dcmitype/StillImage" />
        <dc:title></dc:title>
      </cc:Work>
    </rdf:RDF>
  </metadata>
  <defs
     id="defs1576" />
  <sodipodi:namedview
     pagecolor="#ffffff"
     bordercolor="#666666"
     borderopacity="1"
     objecttolerance="10"
     gridtolerance="10"
     guidetolerance="10"
     inkscape:pageopacity="0"
     inkscape:pageshadow="2"
     inkscape:window-width="2560"
     inkscape:window-height="1387"
     id="namedview1574"
     showgrid="false"
     inkscape:zoom="0.59570313"
     inkscape:cx="-433.82078"
     inkscape:cy="263.08701"
     inkscape:window-x="-8"
     inkscape:window-y="22"
     inkscape:window-maximized="1"
     inkscape:current-layer="layer2" />
  <g
     id="g1639">
    <path
       style="fill:#a79ba7"
       inkscape:connector-curvature="0"
       id="path1514"
       d="M 315.44,326.194 H 197.49 v 103.54 l 7.03,20.865 h 101.832 l 9.158,-20.865 z" />
    <g
       id="XMLID_248_">
      <g
         id="g1524">
        <path
           d="m 255.924,395.244 h 59.563 l -0.047,-69.05 H 235.883 197.49 v 69.05 34.49 l 7.03,20.865 h 38.393 l -7.03,-20.865 v -14.449 c 0,-11.068 8.972,-20.041 20.041,-20.041 z"
           id="path1516"
           inkscape:connector-curvature="0"
           style="fill:#918291" />
        <path
           d="M 482.16,41.544 H 30.84 c -12.89,0 -23.34,10.45 -23.34,23.33 v 269.655 c -0.1,0.177 -0.107,0.275 0,0.275 2.03,0 47.858,22.72 47.858,22.72 H 487.42 l 18.08,-22.72 V 64.874 c 0,-12.88 -10.45,-23.33 -23.34,-23.33 z"
           id="path1518"
           inkscape:connector-curvature="0"
           style="fill:#c8effe" />
        <path
           d="M 77.543,334.594 V 42.564 c 0,-0.342 0.011,-0.681 0.026,-1.02 H 30.84 c -12.89,0 -23.34,10.45 -23.34,23.33 v 269.655 c -0.1,0.177 -0.107,0.275 0,0.275 2.03,0 47.858,22.72 47.858,22.72 H 96.539 C 85.725,355.487 77.543,345.998 77.543,334.594 Z"
           id="path1520"
           inkscape:connector-curvature="0"
           style="fill:#99e6fc" />
        <path
           d="m 505.5,334.804 v 22.1 c 0,12.89 -10.45,23.34 -23.34,23.34 H 30.84 c -12.89,0 -23.34,-10.45 -23.34,-23.34 v -22.1 h 2.03 z"
           id="path1522"
           inkscape:connector-curvature="0"
           style="fill:#b5adb6" />
      </g>
    </g>
    <path
       d="m 100.883,357.934 c -12.82,0 -23.221,-10.337 -23.335,-23.13 H 9.53 7.5 v 22.1 c 0,12.89 10.45,23.34 23.34,23.34 h 451.32 c 12.545,0 22.774,-9.898 23.314,-22.31 z"
       id="path1527"
       inkscape:connector-curvature="0"
       style="fill:#a79ba7" />
    <g
       id="XMLID_250_">
      <g
         id="g1531">
        <path
           d="m 361.22,461.504 c 4.4,3.06 2.24,9.96 -3.11,9.96 H 154.89 c -5.35,0 -7.51,-6.9 -3.11,-9.96 l 45.71,-31.77 h 84.44 33.58 z"
           id="path1529"
           inkscape:connector-curvature="0"
           style="fill:#b5adb6" />
      </g>
    </g>
    <path
       d="m 190.275,461.504 45.71,-31.77 H 197.49 l -45.71,31.77 c -4.4,3.06 -2.24,9.96 3.11,9.96 h 38.495 c -5.35,0 -7.51,-6.9 -3.11,-9.96 z"
       id="path1534"
       inkscape:connector-curvature="0"
       style="fill:#a79ba7" />
  </g>
  <g
     inkscape:groupmode="layer"
     id="layer1"
     inkscape:label="Layer 1" />
  <g
     inkscape:groupmode="layer"
     id="layer2"
     inkscape:label="Layer 2">
    <g
       transform="matrix(0.51137943,0,0,0.51137943,125.58687,56.626216)"
       style="fill-rule:evenodd"
       id="g12">
      <path
         style="fill:#77c9ff"
         inkscape:connector-curvature="0"
         d="m 80.003906,427.87109 c 12.105469,12.39453 25.515624,23.51563 40.000004,33.14453 17.41015,11.57032 36.3789,20.98438 56.52343,27.85547 C 180.67187,496.65234 189.46094,502 198.87109,502 h 114.26172 c 9.41016,0 18.19531,-5.34766 22.33985,-13.12891 C 432.33594,455.82422 502,364.05078 502,256 502,184.10937 471.16406,119.42187 421.99609,74.445312 409.73828,63.230469 396.33984,53.242188 381.99609,44.671875 345.14453,22.652344 302.05078,10 256,10 120.13672,10 10,120.13672 10,256 10,322.88281 36.691406,383.52734 80.003906,427.87109 Z M 213.79687,333.66797 c 1.79688,-23.14063 18.99219,-42.20313 42.20313,-42.20313 23.21484,0 40.40625,19.0625 42.20312,42.20313 l 7.10157,91.42578 0.64453,8.26953 c 0.64453,8.28125 -6.79688,15.10156 -15.10156,15.10156 h -69.69532 c -8.30468,0 -15.74218,-6.82031 -15.10156,-15.10156 l 0.64453,-8.27344 z m 0,0"
         id="path2" />
      <path
         style="fill:#f98ebd"
         inkscape:connector-curvature="0"
         d="m 213.79687,333.66797 -7.10156,91.42187 c 6.97656,-14.59375 26.41797,-23.30468 49.30469,-23.30468 22.88672,0 42.32812,8.71093 49.30469,23.30859 l -7.10157,-91.42578 C 296.40625,310.52734 279.21094,291.46484 256,291.46484 c -23.21094,0 -40.40625,19.0625 -42.20313,42.20313 z m 0,0"
         id="path4" />
      <path
         style="fill:#ff6977"
         inkscape:connector-curvature="0"
         d="m 256,401.78906 c -22.88672,0 -42.32813,8.70703 -49.30469,23.30469 l -0.64453,8.26953 c -0.64062,8.28125 6.79688,15.10156 15.10156,15.10156 h 69.69532 c 8.30468,0 15.74609,-6.82031 15.10156,-15.10156 l -0.64453,-8.26953 C 298.32813,410.49609 278.88672,401.78906 256,401.78906 Z m 0,0"
         id="path6" />
      <path
         style="fill:#f8f8f8"
         inkscape:connector-curvature="0"
         d="m 412.22266,173 c 0,-21.20703 -12.33594,-39.53125 -30.22657,-48.1875 -7.03515,-3.40234 -14.93359,-5.3125 -23.27343,-5.3125 -5.83985,0 -11.46485,0.9375 -16.72657,2.66797 -21.35547,7.02344 -36.77343,27.125 -36.77343,50.83203 0,29.54687 23.95312,53.5 53.5,53.5 29.54687,0 53.5,-23.95313 53.5,-53.5 z m 0,0"
         id="path8" />
      <path
         style="fill:#f8f8f8"
         inkscape:connector-curvature="0"
         d="m 206.77734,173 c 0,29.54687 -23.95312,53.5 -53.5,53.5 -29.54687,0 -53.499996,-23.95313 -53.499996,-53.5 0,-29.54688 23.953126,-53.5 53.499996,-53.5 29.54688,0 53.5,23.95312 53.5,53.5 z m 0,0"
         id="path10" />
    </g>
    <path
       style="stroke-width:0.51137942"
       inkscape:connector-curvature="0"
       d="m 347.38769,94.969686 c -0.84497,-0.84497 -1.70393,-1.67597 -2.56688,-2.49497 v -13.44768 c 0,-2.82458 -2.29122,-5.1138 -5.1138,-5.1138 -2.82457,0 -5.11379,2.28922 -5.11379,5.1138 v 4.6943 c -3.30998,-2.5529 -6.72184,-4.93801 -10.22959,-7.14533 v -14.836 c 0,-2.82457 -2.28922,-5.11379 -5.11379,-5.11379 -2.82457,0 -5.1138,2.28922 -5.1138,5.11379 v 9.02905 c -18.15197,-9.24478 -38.35745,-14.14284 -59.31801,-14.14284 -26.60771,0 -52.22462,7.94436 -74.08209,22.97412 -2.32718,1.60006 -2.91646,4.7822 -1.31641,7.10937 1.60006,2.32918 4.78419,2.91646 7.11137,1.31641 20.14555,-13.8512 43.7589,-21.17231 68.28713,-21.17231 21.54785,0 41.78929,5.6811 59.31801,15.61705 V 113.3414 c -2.18934,-0.46744 -4.46058,-0.71913 -6.78776,-0.71913 -1.16059,0 -2.3092,0.0639 -3.43983,0.18377 V 96.314056 c 0,-2.82458 -2.28921,-5.1138 -5.11379,-5.1138 -2.82457,0 -5.11379,2.28922 -5.11379,5.1138 v 19.334534 c -11.09254,5.17173 -18.80518,16.42207 -18.80518,29.44627 0,17.90427 14.56832,32.47259 32.47259,32.47259 17.90627,0 32.4726,-14.56832 32.4726,-32.47259 0,-11.66984 -6.19049,-21.9174 -15.45725,-27.64246 V 88.960976 c 3.55768,2.51695 6.96955,5.22366 10.22759,8.10217 v 6.707864 c 0,2.82457 2.28923,5.11379 5.11379,5.11379 1.86175,0 3.48378,-0.99679 4.37869,-2.48099 19.51232,21.44597 31.41987,49.92542 31.41987,81.13554 0,51.6633 -32.83016,97.57559 -81.69685,114.24736 -1.22851,0.41949 -2.25127,1.29043 -2.86253,2.43504 -1.27446,2.3951 -4.05108,4.00314 -6.90962,4.00314 h -58.43109 c -2.85852,0 -5.63715,-1.60804 -6.91161,-4.00314 -0.61126,-1.14461 -1.63401,-2.01555 -2.86253,-2.43504 -9.06899,-3.09425 -17.58466,-7.19927 -25.44312,-12.15725 v -11.26233 c 0,-2.82458 -2.28922,-5.1138 -5.11379,-5.1138 -2.82457,0 -5.11379,2.28922 -5.11379,5.1138 v 4.0351 c -3.58765,-2.82657 -7.00151,-5.8449 -10.22759,-9.03903 v -29.57011 c 0,-2.82458 -2.28922,-5.1138 -5.1138,-5.1138 -2.82457,0 -5.11379,2.28922 -5.11379,5.1138 v 18.06008 c -16.19035,-20.73884 -25.57097,-46.70333 -25.57097,-74.31382 0,-24.53223 7.32112,-48.14358 21.17031,-68.28313 1.60006,-2.32918 1.01277,-5.51132 -1.31441,-7.11137 -2.32717,-1.60006 -5.51131,-1.01277 -7.11136,1.3144 -15.02977,21.85348 -22.97213,47.4684 -22.97213,74.0801 0,34.27042 13.32583,66.20765 35.79856,89.9848 v 25.58695 c 0,2.82457 2.28922,5.11379 5.11379,5.11379 2.82458,0 5.1138,-2.28922 5.1138,-5.11379 v -15.87074 c 3.26604,2.78462 6.67989,5.41343 10.22759,7.87644 v 7.9943 c 0,2.82457 2.28922,5.11379 5.11379,5.11379 2.82457,0 5.11379,-2.28922 5.11379,-5.11379 v -1.57209 c 6.45017,3.64358 13.2659,6.77377 20.41123,9.32268 3.31198,4.66834 8.90919,7.59079 14.80603,7.59079 h 58.43109 c 5.89485,0 11.49206,-2.92245 14.80404,-7.59079 52.05083,-18.56946 86.89255,-67.8956 86.89255,-123.32234 0,-34.96756 -13.61747,-67.84367 -38.34347,-92.569664 z m -40.03941,72.370174 c -12.26512,0 -22.245,-9.97989 -22.245,-22.245 0,-12.26512 9.97988,-22.245 22.245,-22.245 12.26712,0 22.24501,9.97988 22.24501,22.245 0,12.26511 -9.97789,22.245 -22.24501,22.245 z m 0,0"
       id="path14" />
    <path
       style="stroke-width:0.51137942"
       inkscape:connector-curvature="0"
       d="m 227.38332,286.87081 c 2.473,2.67276 5.97675,4.20489 9.61433,4.20489 h 35.64076 c 3.63758,0 7.14133,-1.53213 9.61433,-4.20489 2.32517,-2.51295 3.4638,-5.71907 3.20611,-9.02705 l -3.9592,-50.98213 c -1.16458,-14.9938 -12.63667,-26.30009 -26.68162,-26.30009 -14.04496,0 -25.51503,11.30629 -26.67963,26.30009 l -3.96119,50.98213 c -0.25768,3.30999 0.88094,6.51609 3.20611,9.02705 z m 47.36253,-6.94757 c -0.52736,0.57131 -1.33439,0.92488 -2.10744,0.92488 h -35.64076 c -0.77306,0 -1.58008,-0.35357 -2.10744,-0.92488 -0.37754,-0.40751 -0.55133,-0.84098 -0.51537,-1.28644 l 0.2457,-3.16816 c 2.9704,-5.04587 10.75895,-8.26396 20.19749,-8.26396 9.43854,0 17.22709,3.21809 20.19749,8.26396 l 0.2457,3.16616 c 0.0359,0.44946 -0.13783,0.88094 -0.51537,1.28844 z m -36.41182,-52.27057 c 0.7471,-9.61433 7.8325,-16.86354 16.484,-16.86354 8.6515,0 15.73691,7.24921 16.48399,16.86354 l 2.61084,33.59923 c -5.25562,-2.74467 -11.82366,-4.27481 -19.09483,-4.27481 -7.26918,0 -13.8392,1.53014 -19.09283,4.27481 z m 0,0"
       id="path16" />
    <path
       style="stroke-width:0.51137942"
       inkscape:connector-curvature="0"
       d="m 165.86199,103.70109 c 1.31041,0 2.61882,-0.50139 3.61761,-1.50018 1.99757,-1.99558 1.99757,-5.233654 0,-7.231224 -1.99558,-1.99758 -5.23365,-1.99758 -7.23123,0 l -0.002,0.002 c -1.99757,1.99758 -1.99757,5.233654 0,7.231234 0.99879,0.99878 2.3072,1.49818 3.61561,1.49818 z m 0,0"
       id="path18" />
    <path
       style="stroke-width:0.51137942"
       inkscape:connector-curvature="0"
       d="m 202.28778,112.62227 c -17.90627,0 -32.47259,14.56632 -32.47259,32.47259 0,17.90427 14.56632,32.47259 32.47259,32.47259 17.90427,0 32.47259,-14.56832 32.47259,-32.47259 0,-17.90627 -14.56632,-32.47259 -32.47259,-32.47259 z m 0,54.71759 c -12.26712,0 -22.24501,-9.97989 -22.24501,-22.245 0,-12.26512 9.97789,-22.245 22.24501,-22.245 12.26511,0 22.245,9.97988 22.245,22.245 0,12.26511 -9.97989,22.245 -22.245,22.245 z m 0,0"
       id="path20" />
  </g>
  <path
     d="M 482.162,34.04 H 30.838 C 13.834,34.04 0,47.874 0,64.878 v 292.025 c 0,17.004 13.834,30.838 30.838,30.838 h 159.15 v 38.075 l -42.493,29.531 c -4.678,3.251 -6.677,9.088 -4.973,14.524 1.704,5.436 6.676,9.088 12.373,9.088 h 203.211 c 5.697,0 10.669,-3.652 12.373,-9.088 1.704,-5.436 -0.295,-11.273 -4.973,-14.524 l -42.493,-29.531 v -38.075 h 159.15 c 17.004,0 30.838,-13.834 30.838,-30.838 V 64.878 C 513,47.874 499.166,34.04 482.162,34.04 Z m -451.324,15 h 451.324 c 8.733,0 15.838,7.105 15.838,15.838 V 327.307 H 15 V 64.878 C 15,56.145 22.105,49.04 30.838,49.04 Z M 482.162,372.741 H 289.477 c -4.142,0 -7.5,3.358 -7.5,7.5 0,4.142 3.358,7.5 7.5,7.5 h 18.535 v 41.996 c 0,2.457 1.203,4.757 3.22,6.159 l 40.382,28.064 H 161.387 l 38.452,-26.723 h 82.091 c 4.142,0 7.5,-3.358 7.5,-7.5 0,-4.142 -3.358,-7.5 -7.5,-7.5 h -76.941 v -34.496 h 52.526 c 4.142,0 7.5,-3.358 7.5,-7.5 0,-4.142 -3.358,-7.5 -7.5,-7.5 H 30.838 C 22.105,372.741 15,365.636 15,356.903 v -14.597 h 483 v 14.597 c 0,8.733 -7.105,15.838 -15.838,15.838 z"
     id="path1559"
     inkscape:connector-curvature="0" />
</svg>
